<?xml version="1.0" encoding="utf-8"?>
<svg xmlns="http://www.w3.org/2000/svg" viewBox="164.725 118.088 194.38 193.433" xmlns:bx="https://boxy-svg.com" width="194.38px" height="193.433px"><defs><bx:export><bx:file format="svg" path="Sem título.svg"/></bx:export></defs><rect x="192.858" y="163.988" width="136.965" height="104.066" style="stroke: rgb(0, 0, 0); fill: rgb(232, 241, 255); fill-rule: nonzero;"/><g transform="matrix(0.1, 0, 0, -0.1, 165.692048, 311.096529)" fill="#000000" stroke="none"><path d="M805 1905 c-499 -79 -855 -548 -796 -1050 52 -451 395 -794 846 -846 605 -71 1127 451 1056 1056 -63 549 -561 927 -1106 840z m301 -853 c64 -92 121 -172 128 -179 8 -9 42 32 141 172 72 101 133 184 138 185 4 0 7 -124 7 -275 l0 -275 -40 0 -40 0 -2 164 -3 165 -94 -135 c-52 -74 -97 -134 -100 -134 -3 1 -46 58 -96 127 l-90 125 -3 -156 -3 -156 -39 0 -40 0 0 276 c0 179 3 273 10 269 5 -3 62 -81 126 -173z m-400 141 c157 -83 193 -314 69 -438 -59 -59 -112 -75 -257 -75 l-118 0 0 271 0 271 133 -4 c112 -3 138 -7 173 -25z" style="fill: rgb(33, 40, 51); fill-rule: nonzero;"/><path d="M480 950 l0 -200 45 0 c182 0 277 108 234 265 -23 83 -111 135 -228 135 l-51 0 0 -200z" style="fill: rgb(33, 40, 51); fill-rule: nonzero;"/></g></svg>